<?xml version="1.0" encoding="UTF-8" standalone="no"?>
<!-- Created with Inkscape (http://www.inkscape.org/) -->

<svg
   width="260mm"
   height="160mm"
   viewBox="0 0 260 160"
   version="1.1"
   id="svg5"
   inkscape:version="1.2.2 (732a01da63, 2022-12-09)"
   sodipodi:docname="Spiral.svg"
   xmlns:inkscape="http://www.inkscape.org/namespaces/inkscape"
   xmlns:sodipodi="http://sodipodi.sourceforge.net/DTD/sodipodi-0.dtd"
   xmlns="http://www.w3.org/2000/svg"
   xmlns:svg="http://www.w3.org/2000/svg">
  <sodipodi:namedview
     id="namedview7"
     pagecolor="#ffffff"
     bordercolor="#000000"
     borderopacity="0.25"
     inkscape:showpageshadow="2"
     inkscape:pageopacity="0.0"
     inkscape:pagecheckerboard="0"
     inkscape:deskcolor="#d1d1d1"
     inkscape:document-units="mm"
     showgrid="false"
     inkscape:zoom="0.74564394"
     inkscape:cx="352.0447"
     inkscape:cy="337.96292"
     inkscape:window-width="1920"
     inkscape:window-height="1017"
     inkscape:window-x="1912"
     inkscape:window-y="-8"
     inkscape:window-maximized="1"
     inkscape:current-layer="layer1" />
  <defs
     id="defs2">
    <linearGradient
       id="linearGradient3723"
       inkscape:swatch="solid">
      <stop
         style="stop-color:#000000;stop-opacity:1;"
         offset="0"
         id="stop3721" />
    </linearGradient>
  </defs>
  <g
     inkscape:label="Layer 1"
     inkscape:groupmode="layer"
     id="layer1">
    <path
       sodipodi:type="spiral"
       style="fill:none;fill-rule:evenodd;stroke:#000000;stroke-width:0.264583"
       id="path13358"
       sodipodi:cx="93.322578"
       sodipodi:cy="64.225807"
       sodipodi:expansion="1"
       sodipodi:revolution="3"
       sodipodi:radius="47.47551"
       sodipodi:argument="-19.192579"
       sodipodi:t0="0"
       d="m 93.322578,64.225807 c 2.241673,-0.800596 2.18515,2.626744 1.330643,3.725807 -2.315659,2.978394 -6.832451,1.493985 -8.782257,-1.064521 -3.487746,-4.576567 -1.090838,-11.035417 3.459686,-13.838707 6.678076,-4.113942 15.30527,-0.703065 18.89516,5.854849 4.78475,8.740669 0.32348,19.600168 -8.250017,23.951608 C 89.186924,88.330687 76.068481,82.803311 70.967735,72.209665 64.790048,59.37934 71.391573,43.988246 84.008078,38.145157 c 14.868114,-6.885879 32.539872,0.794434 39.120962,15.435507 7.59812,16.903698 -1.16389,36.861238 -17.83068,44.177408 -18.937851,8.313098 -41.184632,-1.532552 -49.233854,-20.225835 -9.03001,-20.97104 1.900639,-45.509519 22.621,-54.290309 23.003524,-9.748342 49.835514,2.268297 59.346764,25.016164"
       transform="matrix(-1.1785928,0,0,-1.2055088,211.32075,149.10056)" />
  </g>
</svg>
