<?xml version="1.0" encoding="UTF-8" standalone="no"?>
<!-- Created with Inkscape (http://www.inkscape.org/) -->

<svg
   width="260mm"
   height="160mm"
   viewBox="0 0 260 160"
   version="1.1"
   id="svg5"
   inkscape:version="1.2.2 (732a01da63, 2022-12-09)"
   sodipodi:docname="UoS.svg"
   xmlns:inkscape="http://www.inkscape.org/namespaces/inkscape"
   xmlns:sodipodi="http://sodipodi.sourceforge.net/DTD/sodipodi-0.dtd"
   xmlns="http://www.w3.org/2000/svg"
   xmlns:svg="http://www.w3.org/2000/svg">
  <sodipodi:namedview
     id="namedview7"
     pagecolor="#ffffff"
     bordercolor="#000000"
     borderopacity="0.25"
     inkscape:showpageshadow="2"
     inkscape:pageopacity="0.0"
     inkscape:pagecheckerboard="0"
     inkscape:deskcolor="#d1d1d1"
     inkscape:document-units="mm"
     showgrid="false"
     inkscape:zoom="1.4912879"
     inkscape:cx="421.4478"
     inkscape:cy="276.94183"
     inkscape:window-width="1920"
     inkscape:window-height="1017"
     inkscape:window-x="1912"
     inkscape:window-y="-8"
     inkscape:window-maximized="1"
     inkscape:current-layer="layer1" />
  <defs
     id="defs2">
    <linearGradient
       id="linearGradient3723"
       inkscape:swatch="solid">
      <stop
         style="stop-color:#000000;stop-opacity:1;"
         offset="0"
         id="stop3721" />
    </linearGradient>
  </defs>
  <g
     inkscape:label="Layer 1"
     inkscape:groupmode="layer"
     id="layer1">
    <g
       aria-label="UoS"
       id="text17211"
       style="font-size:50.8px;opacity:1;fill:none;stroke:#000000;stroke-width:0.264999">
      <path
         d="m 107.63796,60.924861 q 0,4.01836 -0.89297,7.019727 -0.86816,2.976562 -2.87734,4.960937 -1.90996,1.885156 -4.464843,2.753321 -2.554883,0.868164 -5.953125,0.868164 -3.472656,0 -6.052343,-0.917774 -2.579688,-0.917773 -4.340821,-2.703711 -2.009179,-2.033984 -2.902148,-4.911328 -0.868164,-2.877344 -0.868164,-7.069336 V 38.823885 h 4.911328 v 22.349023 q 0,3.001367 0.396875,4.737695 0.42168,1.736329 1.389063,3.150196 1.091406,1.612304 2.951757,2.430859 1.885157,0.818555 4.514453,0.818555 2.654102,0 4.514453,-0.79375 1.860352,-0.818555 2.976565,-2.455664 0.96738,-1.413867 1.36426,-3.22461 0.42168,-1.835546 0.42168,-4.539257 V 38.823885 h 4.91132 z"
         style="stroke-width:0.265"
         id="path18719" />
      <path
         d="m 140.25613,61.917049 q 0,6.771679 -3.47266,10.69082 -3.47266,3.919141 -9.30176,3.919141 -5.87871,0 -9.35137,-3.919141 -3.44785,-3.919141 -3.44785,-10.69082 0,-6.77168 3.44785,-10.69082 3.47266,-3.943946 9.35137,-3.943946 5.8291,0 9.30176,3.943946 3.47266,3.91914 3.47266,10.69082 z m -4.81211,0 q 0,-5.382617 -2.1084,-7.987109 -2.1084,-2.629297 -5.85391,-2.629297 -3.79512,0 -5.90351,2.629297 -2.0836,2.604492 -2.0836,7.987109 0,5.208984 2.1084,7.912695 2.1084,2.678906 5.87871,2.678906 3.7207,0 5.8291,-2.654101 2.13321,-2.678906 2.13321,-7.9375 z"
         style="stroke-width:0.265"
         id="path18721" />
      <path
         d="m 174.68503,65.216072 q 0,2.158008 -1.01699,4.266406 -0.99219,2.108399 -2.80293,3.571875 -1.98438,1.5875 -4.63848,2.480469 -2.62929,0.892969 -6.35,0.892969 -3.99355,0 -7.19336,-0.744141 -3.175,-0.74414 -6.47402,-2.207617 v -6.151562 h 0.34727 q 2.80293,2.33164 6.47402,3.596679 3.67109,1.265039 6.8957,1.265039 4.56406,0 7.09414,-1.711523 2.55489,-1.711523 2.55489,-4.564063 0,-2.455664 -1.21543,-3.621484 -1.19063,-1.16582 -3.64629,-1.810742 -1.86036,-0.496094 -4.04317,-0.818555 -2.15801,-0.322461 -4.58886,-0.818554 -4.91133,-1.041797 -7.29258,-3.547071 -2.35645,-2.530078 -2.35645,-6.573242 0,-4.638476 3.91914,-7.590234 3.91914,-2.976562 9.94668,-2.976562 3.89434,0 7.14375,0.74414 3.24942,0.744141 5.75469,1.835547 v 5.804297 h -0.34727 q -2.10839,-1.785938 -5.55625,-2.951758 -3.42304,-1.190625 -7.01972,-1.190625 -3.94395,0 -6.35,1.637109 -2.38125,1.63711 -2.38125,4.216797 0,2.306836 1.19062,3.621485 1.19063,1.314648 4.19199,2.009179 1.5875,0.347266 4.51446,0.84336 2.92695,0.496093 4.96094,1.016992 4.11757,1.091406 6.20117,3.299023 2.08359,2.207617 2.08359,6.176367 z"
         style="stroke-width:0.265"
         id="path18723" />
    </g>
  </g>
</svg>
